<?xml version="1.0" encoding="UTF-8" standalone="no"?>
<!DOCTYPE svg PUBLIC "-//W3C//DTD SVG 1.1//EN" "http://www.w3.org/Graphics/SVG/1.1/DTD/svg11.dtd">
<svg width="100%" height="100%" viewBox="0 0 1000 338" version="1.1" xmlns="http://www.w3.org/2000/svg" xmlns:xlink="http://www.w3.org/1999/xlink" xml:space="preserve" xmlns:serif="http://www.serif.com/" style="fill-rule:evenodd;clip-rule:evenodd;stroke-linejoin:round;stroke-miterlimit:2;">
    <g transform="matrix(1,0,0,1,-1050,-1408.868572)">
        <g transform="matrix(1,0,0,1.086731,0,-136.812489)">
            <rect x="1050" y="1422.322" width="1000" height="310.242" style="fill:white;"/>
        </g>
        <g transform="matrix(0.921576,0,0,0.921576,1165.185354,123.719175)">
            <g transform="matrix(0.576833,0,0,0.576833,154.18044,1314.372193)">
                <g transform="matrix(327.677762,0,0,327.677762,98.821396,403.44515)">
                    <path d="M0.31,-0C0.257,-0 0.21,-0.011 0.169,-0.034C0.128,-0.057 0.095,-0.087 0.071,-0.126C0.047,-0.164 0.035,-0.207 0.035,-0.255C0.035,-0.303 0.047,-0.346 0.071,-0.385C0.095,-0.423 0.128,-0.453 0.169,-0.476C0.21,-0.499 0.257,-0.51 0.31,-0.51L0.374,-0.51L0.374,-0.393L0.31,-0.393C0.282,-0.393 0.258,-0.387 0.238,-0.375C0.217,-0.363 0.202,-0.346 0.191,-0.326C0.179,-0.304 0.174,-0.281 0.174,-0.255C0.174,-0.229 0.179,-0.206 0.191,-0.184C0.202,-0.164 0.217,-0.147 0.238,-0.135C0.258,-0.123 0.282,-0.117 0.31,-0.117L0.374,-0.117L0.374,-0L0.31,-0Z" style="fill-rule:nonzero;"/>
                </g>
                <g transform="matrix(327.677762,0,0,327.677762,231.203212,403.44515)">
                    <path d="M0.31,0.012C0.257,0.012 0.21,0 0.169,-0.024C0.128,-0.047 0.095,-0.079 0.071,-0.12C0.047,-0.16 0.035,-0.205 0.035,-0.255C0.035,-0.305 0.047,-0.35 0.071,-0.39C0.095,-0.431 0.128,-0.463 0.169,-0.486C0.21,-0.51 0.257,-0.522 0.31,-0.522C0.363,-0.522 0.41,-0.51 0.451,-0.486C0.492,-0.463 0.525,-0.431 0.549,-0.391C0.573,-0.351 0.585,-0.305 0.585,-0.255C0.585,-0.205 0.573,-0.16 0.549,-0.12C0.525,-0.079 0.492,-0.047 0.451,-0.024C0.41,0 0.363,0.012 0.31,0.012ZM0.31,-0.105C0.338,-0.105 0.362,-0.112 0.383,-0.125C0.403,-0.138 0.419,-0.156 0.429,-0.179C0.44,-0.201 0.446,-0.227 0.446,-0.255C0.446,-0.283 0.44,-0.308 0.429,-0.331C0.419,-0.354 0.403,-0.372 0.383,-0.385C0.362,-0.398 0.338,-0.405 0.31,-0.405C0.282,-0.405 0.258,-0.398 0.238,-0.385C0.217,-0.372 0.202,-0.354 0.191,-0.331C0.179,-0.309 0.174,-0.283 0.174,-0.255C0.174,-0.227 0.179,-0.202 0.191,-0.179C0.202,-0.156 0.217,-0.138 0.238,-0.125C0.258,-0.112 0.282,-0.105 0.31,-0.105Z" style="fill-rule:nonzero;"/>
                </g>
                <g transform="matrix(327.677762,0,0,327.677762,434.363424,403.44515)">
                    <path d="M0.065,-0L0.065,-0.303C0.065,-0.343 0.075,-0.38 0.094,-0.413C0.113,-0.446 0.141,-0.473 0.177,-0.492C0.214,-0.512 0.258,-0.522 0.309,-0.522C0.334,-0.522 0.357,-0.519 0.378,-0.513C0.399,-0.508 0.418,-0.5 0.436,-0.489C0.454,-0.478 0.47,-0.466 0.483,-0.451L0.484,-0.451C0.498,-0.466 0.514,-0.478 0.532,-0.489C0.55,-0.5 0.57,-0.508 0.591,-0.513C0.612,-0.519 0.635,-0.522 0.66,-0.522C0.711,-0.522 0.755,-0.512 0.791,-0.492C0.828,-0.473 0.856,-0.446 0.875,-0.413C0.894,-0.38 0.904,-0.343 0.904,-0.303L0.904,-0L0.767,-0L0.767,-0.303C0.767,-0.322 0.762,-0.339 0.753,-0.354C0.743,-0.369 0.73,-0.382 0.714,-0.391C0.698,-0.4 0.68,-0.405 0.66,-0.405C0.641,-0.405 0.623,-0.4 0.607,-0.391C0.59,-0.382 0.577,-0.369 0.568,-0.354C0.558,-0.339 0.553,-0.322 0.553,-0.303L0.553,-0L0.416,-0L0.416,-0.303C0.416,-0.322 0.411,-0.339 0.402,-0.354C0.392,-0.369 0.379,-0.382 0.363,-0.391C0.347,-0.4 0.329,-0.405 0.309,-0.405C0.29,-0.405 0.272,-0.4 0.256,-0.391C0.239,-0.382 0.226,-0.369 0.216,-0.354C0.207,-0.339 0.202,-0.322 0.202,-0.303L0.202,-0L0.065,-0Z" style="fill-rule:nonzero;"/>
                </g>
                <g transform="matrix(327.677762,0,0,327.677762,751.883176,403.44515)">
                    <path d="M0.31,0.012C0.257,0.012 0.21,0 0.169,-0.024C0.128,-0.047 0.095,-0.079 0.071,-0.12C0.047,-0.16 0.035,-0.205 0.035,-0.255C0.035,-0.305 0.047,-0.35 0.071,-0.39C0.095,-0.431 0.128,-0.463 0.169,-0.486C0.21,-0.51 0.257,-0.522 0.31,-0.522C0.363,-0.522 0.41,-0.51 0.451,-0.486C0.492,-0.463 0.525,-0.431 0.549,-0.391C0.573,-0.351 0.585,-0.305 0.585,-0.255C0.585,-0.205 0.573,-0.16 0.549,-0.12C0.525,-0.079 0.492,-0.047 0.451,-0.024C0.41,0 0.363,0.012 0.31,0.012ZM0.31,-0.105C0.338,-0.105 0.362,-0.112 0.383,-0.125C0.403,-0.138 0.419,-0.156 0.429,-0.179C0.44,-0.201 0.446,-0.227 0.446,-0.255C0.446,-0.283 0.44,-0.308 0.429,-0.331C0.419,-0.354 0.403,-0.372 0.383,-0.385C0.362,-0.398 0.338,-0.405 0.31,-0.405C0.282,-0.405 0.258,-0.398 0.238,-0.385C0.217,-0.372 0.202,-0.354 0.191,-0.331C0.179,-0.309 0.174,-0.283 0.174,-0.255C0.174,-0.227 0.179,-0.202 0.191,-0.179C0.202,-0.156 0.217,-0.138 0.238,-0.125C0.258,-0.112 0.282,-0.105 0.31,-0.105Z" style="fill-rule:nonzero;"/>
                </g>
                <g transform="matrix(327.677762,0,0,327.677762,955.043388,403.44515)">
                    <path d="M0.304,0.012C0.261,0.012 0.223,0.005 0.19,-0.009C0.156,-0.022 0.128,-0.042 0.105,-0.067C0.082,-0.092 0.065,-0.121 0.053,-0.154C0.041,-0.188 0.035,-0.225 0.035,-0.265C0.035,-0.316 0.045,-0.36 0.066,-0.399C0.086,-0.437 0.115,-0.467 0.151,-0.489C0.189,-0.511 0.232,-0.522 0.281,-0.522C0.302,-0.522 0.323,-0.519 0.343,-0.513C0.362,-0.507 0.38,-0.498 0.396,-0.487C0.412,-0.476 0.425,-0.462 0.435,-0.447L0.436,-0.447L0.436,-0.73L0.573,-0.73L0.573,-0.265C0.573,-0.209 0.562,-0.16 0.54,-0.119C0.518,-0.077 0.487,-0.045 0.447,-0.022C0.407,0.001 0.359,0.012 0.304,0.012ZM0.304,-0.105C0.331,-0.105 0.355,-0.112 0.374,-0.125C0.393,-0.138 0.408,-0.156 0.418,-0.179C0.429,-0.202 0.434,-0.227 0.434,-0.255C0.434,-0.283 0.429,-0.308 0.418,-0.331C0.408,-0.354 0.393,-0.372 0.374,-0.385C0.355,-0.398 0.331,-0.405 0.304,-0.405C0.277,-0.405 0.254,-0.398 0.235,-0.385C0.215,-0.372 0.2,-0.354 0.19,-0.331C0.179,-0.308 0.174,-0.283 0.174,-0.255C0.174,-0.227 0.179,-0.202 0.19,-0.179C0.2,-0.156 0.215,-0.138 0.235,-0.125C0.254,-0.112 0.277,-0.105 0.304,-0.105Z" style="fill-rule:nonzero;"/>
                </g>
                <g transform="matrix(327.677762,0,0,327.677762,1162.463411,403.44515)">
                    <path d="M0.31,0.012C0.257,0.012 0.21,0 0.169,-0.024C0.128,-0.047 0.095,-0.079 0.071,-0.12C0.047,-0.16 0.035,-0.205 0.035,-0.255C0.035,-0.305 0.047,-0.35 0.071,-0.39C0.095,-0.431 0.128,-0.463 0.169,-0.486C0.21,-0.51 0.257,-0.522 0.31,-0.522C0.363,-0.522 0.41,-0.51 0.451,-0.486C0.492,-0.463 0.525,-0.431 0.549,-0.391C0.573,-0.351 0.585,-0.305 0.585,-0.255C0.585,-0.205 0.573,-0.16 0.549,-0.12C0.525,-0.079 0.492,-0.047 0.451,-0.024C0.41,0 0.363,0.012 0.31,0.012ZM0.31,-0.105C0.338,-0.105 0.362,-0.112 0.383,-0.125C0.403,-0.138 0.419,-0.156 0.429,-0.179C0.44,-0.201 0.446,-0.227 0.446,-0.255C0.446,-0.283 0.44,-0.308 0.429,-0.331C0.419,-0.354 0.403,-0.372 0.383,-0.385C0.362,-0.398 0.338,-0.405 0.31,-0.405C0.282,-0.405 0.258,-0.398 0.238,-0.385C0.217,-0.372 0.202,-0.354 0.191,-0.331C0.179,-0.309 0.174,-0.283 0.174,-0.255C0.174,-0.227 0.179,-0.202 0.191,-0.179C0.202,-0.156 0.217,-0.138 0.238,-0.125C0.258,-0.112 0.282,-0.105 0.31,-0.105Z" style="fill-rule:nonzero;"/>
                </g>
                <g transform="matrix(327.677762,0,0,327.677762,1365.623624,403.44515)">
                </g>
            </g>
            <g transform="matrix(0.661009,0,0,0.661009,-176.035036,1438.473285)">
                <g transform="matrix(302.567548,0,0,302.567548,98.821396,403.44515)">
                    <path d="M0.053,-0L0.053,-0.7L0.47,-0.7C0.507,-0.7 0.54,-0.692 0.57,-0.676C0.599,-0.661 0.623,-0.639 0.641,-0.611C0.659,-0.583 0.668,-0.55 0.668,-0.512C0.668,-0.491 0.664,-0.471 0.656,-0.453C0.648,-0.433 0.638,-0.416 0.624,-0.401C0.61,-0.386 0.595,-0.373 0.576,-0.363C0.598,-0.353 0.617,-0.339 0.633,-0.322C0.65,-0.305 0.662,-0.285 0.671,-0.263C0.681,-0.241 0.685,-0.218 0.685,-0.193C0.685,-0.155 0.676,-0.121 0.658,-0.092C0.639,-0.063 0.615,-0.04 0.584,-0.024C0.554,-0.008 0.52,-0 0.482,-0L0.053,-0ZM0.244,-0.151L0.436,-0.151C0.448,-0.151 0.459,-0.154 0.468,-0.16C0.477,-0.165 0.485,-0.173 0.49,-0.183C0.496,-0.193 0.498,-0.204 0.498,-0.216C0.498,-0.228 0.496,-0.238 0.49,-0.248C0.485,-0.257 0.477,-0.265 0.468,-0.27C0.459,-0.276 0.448,-0.279 0.436,-0.279L0.244,-0.279L0.244,-0.151ZM0.244,-0.425L0.415,-0.425C0.427,-0.425 0.437,-0.428 0.446,-0.434C0.455,-0.439 0.462,-0.447 0.467,-0.456C0.472,-0.465 0.474,-0.475 0.474,-0.486C0.474,-0.497 0.472,-0.507 0.467,-0.516C0.462,-0.525 0.455,-0.532 0.446,-0.537C0.437,-0.543 0.427,-0.545 0.415,-0.545L0.244,-0.545L0.244,-0.425Z" style="fill:url(#_Linear1);fill-rule:nonzero;"/>
                </g>
                <g transform="matrix(302.567548,0,0,302.567548,316.064896,403.44515)">
                    <path d="M0.047,-0L0.047,-0.36C0.047,-0.408 0.061,-0.446 0.089,-0.473C0.116,-0.501 0.155,-0.515 0.204,-0.515L0.362,-0.515L0.362,-0.379L0.257,-0.379C0.247,-0.379 0.238,-0.376 0.231,-0.369C0.224,-0.362 0.221,-0.354 0.221,-0.343L0.221,-0L0.047,-0Z" style="fill:url(#_Linear2);fill-rule:nonzero;"/>
                </g>
                <g transform="matrix(302.567548,0,0,302.567548,429.527726,403.44515)">
                    <path d="M0.05,-0L0.05,-0.515L0.224,-0.515L0.224,-0L0.05,-0ZM0.137,-0.571C0.111,-0.571 0.088,-0.581 0.069,-0.6C0.05,-0.619 0.04,-0.642 0.04,-0.668C0.04,-0.694 0.05,-0.717 0.069,-0.737C0.088,-0.756 0.111,-0.765 0.137,-0.765C0.163,-0.765 0.186,-0.756 0.205,-0.737C0.224,-0.717 0.234,-0.694 0.234,-0.668C0.234,-0.642 0.224,-0.619 0.205,-0.6C0.186,-0.581 0.163,-0.571 0.137,-0.571Z" style="fill:url(#_Linear3);fill-rule:nonzero;"/>
                </g>
                <g transform="matrix(302.567548,0,0,302.567548,512.431235,403.44515)">
                    <path d="M0.314,0.013C0.271,0.013 0.232,0.006 0.198,-0.007C0.163,-0.021 0.133,-0.04 0.109,-0.065C0.085,-0.09 0.066,-0.12 0.053,-0.153C0.04,-0.187 0.033,-0.225 0.033,-0.266C0.033,-0.318 0.044,-0.364 0.065,-0.403C0.087,-0.442 0.116,-0.472 0.153,-0.494C0.19,-0.516 0.232,-0.527 0.279,-0.527C0.299,-0.527 0.317,-0.525 0.334,-0.521C0.351,-0.516 0.366,-0.509 0.381,-0.5C0.395,-0.491 0.407,-0.48 0.417,-0.467L0.421,-0.467L0.421,-0.73L0.595,-0.73L0.595,-0.267C0.595,-0.211 0.583,-0.161 0.56,-0.12C0.537,-0.078 0.504,-0.045 0.462,-0.022C0.42,0.001 0.371,0.013 0.314,0.013ZM0.314,-0.138C0.335,-0.138 0.353,-0.143 0.369,-0.154C0.385,-0.164 0.397,-0.178 0.405,-0.196C0.414,-0.214 0.418,-0.234 0.418,-0.257C0.418,-0.279 0.414,-0.299 0.405,-0.316C0.397,-0.334 0.385,-0.347 0.369,-0.358C0.353,-0.368 0.335,-0.373 0.314,-0.373C0.294,-0.373 0.275,-0.368 0.26,-0.358C0.244,-0.347 0.231,-0.334 0.223,-0.316C0.214,-0.299 0.21,-0.279 0.21,-0.257C0.21,-0.234 0.214,-0.214 0.223,-0.196C0.231,-0.178 0.244,-0.164 0.26,-0.154C0.275,-0.143 0.294,-0.138 0.314,-0.138Z" style="fill:url(#_Linear4);fill-rule:nonzero;"/>
                </g>
                <g transform="matrix(302.567548,0,0,302.567548,706.6796,403.44515)">
                    <path d="M0.129,0.203L0.129,0.055L0.38,0.055C0.391,0.055 0.4,0.052 0.407,0.045C0.414,0.039 0.417,0.031 0.417,0.021L0.417,-0.081L0.413,-0.081C0.402,-0.068 0.39,-0.056 0.376,-0.045C0.362,-0.035 0.346,-0.027 0.327,-0.021C0.309,-0.016 0.288,-0.013 0.263,-0.013C0.218,-0.013 0.178,-0.024 0.143,-0.045C0.108,-0.067 0.081,-0.096 0.062,-0.134C0.042,-0.172 0.032,-0.214 0.032,-0.26C0.032,-0.308 0.043,-0.353 0.064,-0.393C0.085,-0.434 0.117,-0.466 0.158,-0.491C0.199,-0.515 0.25,-0.527 0.309,-0.527C0.366,-0.527 0.415,-0.516 0.457,-0.492C0.499,-0.469 0.532,-0.436 0.556,-0.395C0.579,-0.353 0.591,-0.304 0.591,-0.248L0.591,0.048C0.591,0.096 0.577,0.134 0.549,0.161C0.521,0.189 0.482,0.203 0.431,0.203L0.129,0.203ZM0.312,-0.154C0.332,-0.154 0.35,-0.159 0.365,-0.169C0.381,-0.178 0.393,-0.191 0.401,-0.207C0.41,-0.223 0.414,-0.241 0.414,-0.26C0.414,-0.281 0.41,-0.3 0.401,-0.317C0.393,-0.334 0.381,-0.347 0.365,-0.357C0.35,-0.367 0.332,-0.372 0.312,-0.372C0.292,-0.372 0.274,-0.367 0.259,-0.358C0.243,-0.348 0.231,-0.335 0.222,-0.318C0.214,-0.302 0.209,-0.283 0.209,-0.262C0.209,-0.242 0.214,-0.224 0.222,-0.208C0.231,-0.191 0.243,-0.178 0.259,-0.169C0.274,-0.159 0.292,-0.154 0.312,-0.154Z" style="fill:url(#_Linear5);fill-rule:nonzero;"/>
                </g>
                <g transform="matrix(302.567548,0,0,302.567548,899.717696,403.44515)">
                    <path d="M0.329,-0C0.271,-0 0.22,-0.01 0.176,-0.031C0.131,-0.052 0.096,-0.082 0.071,-0.12C0.045,-0.158 0.032,-0.204 0.032,-0.257C0.032,-0.315 0.045,-0.365 0.069,-0.405C0.094,-0.445 0.127,-0.475 0.167,-0.496C0.207,-0.517 0.251,-0.527 0.298,-0.527C0.348,-0.527 0.392,-0.517 0.429,-0.496C0.466,-0.475 0.495,-0.445 0.515,-0.407C0.536,-0.369 0.546,-0.325 0.546,-0.274C0.546,-0.264 0.545,-0.251 0.544,-0.238C0.543,-0.224 0.542,-0.212 0.539,-0.203L0.212,-0.203C0.216,-0.189 0.222,-0.176 0.232,-0.167C0.241,-0.157 0.253,-0.15 0.268,-0.145C0.283,-0.141 0.3,-0.138 0.319,-0.138L0.489,-0.138L0.489,-0L0.329,-0ZM0.206,-0.304L0.382,-0.304C0.382,-0.314 0.38,-0.323 0.378,-0.332C0.376,-0.34 0.372,-0.348 0.367,-0.355C0.362,-0.362 0.356,-0.368 0.35,-0.374C0.343,-0.379 0.335,-0.383 0.326,-0.386C0.317,-0.389 0.307,-0.39 0.296,-0.39C0.282,-0.39 0.27,-0.388 0.259,-0.383C0.248,-0.379 0.239,-0.372 0.232,-0.365C0.224,-0.357 0.219,-0.348 0.214,-0.337C0.21,-0.327 0.208,-0.316 0.206,-0.304Z" style="fill:url(#_Linear6);fill-rule:nonzero;"/>
                </g>
                <g transform="matrix(302.567548,0,0,302.567548,1074.299172,403.44515)">
                </g>
            </g>
            <g transform="matrix(2.97966,0,0,3.160206,-225.255721,-129.998576)">
                <g transform="matrix(-1.60988,0,0,1.157991,1473.045039,-51.398542)">
                    <path d="M744.024,546.246L678.449,546.246L678.354,545.746L743.928,545.746L744.024,546.246Z" style="fill:rgb(173,66,0);"/>
                </g>
                <g transform="matrix(-1.616361,0,0,1.157991,1477.842745,-50.955068)">
                    <path d="M743.702,544.254L678.391,544.254L678.2,543.254L743.511,543.254L743.702,544.254Z" style="fill:rgb(199,76,0);"/>
                </g>
                <g transform="matrix(-1.631235,0,0,1.157991,1488.853214,-49.649192)">
                    <path d="M743.272,541.017L678.556,541.017L678.179,539.017L742.895,539.017L743.272,541.017Z" style="fill:rgb(224,86,0);"/>
                </g>
                <g transform="matrix(-1.664302,0,0,1.157991,1513.330861,-48.828181)">
                    <path d="M742.637,537.199L679.207,537.199L678.652,534.199L742.082,534.199L742.637,537.199Z" style="fill:rgb(249,96,1);"/>
                </g>
                <g transform="matrix(-1.716554,0,0,1.157991,1552.01014,-48.972838)">
                    <path d="M741.827,533.214L680.328,533.214L679.61,529.214L741.109,529.214L741.827,533.214Z" style="fill:rgb(251,111,24);"/>
                </g>
                <g transform="matrix(-1.804831,0,0,1.157991,1617.356335,-50.66013)">
                    <path d="M740.878,529.562L682.386,529.562L681.533,524.562L740.024,524.562L740.878,529.562Z" style="fill:rgb(250,130,56);"/>
                </g>
                <g transform="matrix(-1.911978,0,0,1.157991,1696.670979,-58.313453)">
                    <path d="M739.858,530.062L684.645,530.062L683.678,524.062L738.892,524.062L739.858,530.062Z" style="fill:rgb(249,146,82);"/>
                </g>
            </g>
        </g>
    </g>
    <defs>
        <linearGradient id="_Linear1" x1="0" y1="0" x2="1" y2="0" gradientUnits="userSpaceOnUse" gradientTransform="matrix(0,0.601921,-0.601921,0,0.800651,-0.448562)"><stop offset="0" style="stop-color:rgb(249,146,82);stop-opacity:1"/><stop offset="0.36" style="stop-color:rgb(251,111,24);stop-opacity:1"/><stop offset="1" style="stop-color:rgb(173,66,0);stop-opacity:1"/></linearGradient>
        <linearGradient id="_Linear2" x1="0" y1="0" x2="1" y2="0" gradientUnits="userSpaceOnUse" gradientTransform="matrix(0,0.601921,-0.601921,0,0.082651,-0.448562)"><stop offset="0" style="stop-color:rgb(249,146,82);stop-opacity:1"/><stop offset="0.36" style="stop-color:rgb(251,111,24);stop-opacity:1"/><stop offset="1" style="stop-color:rgb(173,66,0);stop-opacity:1"/></linearGradient>
        <linearGradient id="_Linear3" x1="0" y1="0" x2="1" y2="0" gradientUnits="userSpaceOnUse" gradientTransform="matrix(0,0.601921,-0.601921,0,-0.292349,-0.448562)"><stop offset="0" style="stop-color:rgb(249,146,82);stop-opacity:1"/><stop offset="0.36" style="stop-color:rgb(251,111,24);stop-opacity:1"/><stop offset="1" style="stop-color:rgb(173,66,0);stop-opacity:1"/></linearGradient>
        <linearGradient id="_Linear4" x1="0" y1="0" x2="1" y2="0" gradientUnits="userSpaceOnUse" gradientTransform="matrix(0,0.601921,-0.601921,0,-0.566349,-0.448562)"><stop offset="0" style="stop-color:rgb(249,146,82);stop-opacity:1"/><stop offset="0.36" style="stop-color:rgb(251,111,24);stop-opacity:1"/><stop offset="1" style="stop-color:rgb(173,66,0);stop-opacity:1"/></linearGradient>
        <linearGradient id="_Linear5" x1="0" y1="0" x2="1" y2="0" gradientUnits="userSpaceOnUse" gradientTransform="matrix(0,0.601921,-0.601921,0,-1.208349,-0.448562)"><stop offset="0" style="stop-color:rgb(249,146,82);stop-opacity:1"/><stop offset="0.36" style="stop-color:rgb(251,111,24);stop-opacity:1"/><stop offset="1" style="stop-color:rgb(173,66,0);stop-opacity:1"/></linearGradient>
        <linearGradient id="_Linear6" x1="0" y1="0" x2="1" y2="0" gradientUnits="userSpaceOnUse" gradientTransform="matrix(0,0.601921,-0.601921,0,-1.846349,-0.448562)"><stop offset="0" style="stop-color:rgb(249,146,82);stop-opacity:1"/><stop offset="0.36" style="stop-color:rgb(251,111,24);stop-opacity:1"/><stop offset="1" style="stop-color:rgb(173,66,0);stop-opacity:1"/></linearGradient>
    </defs>
</svg>
